<mxfile host="app.diagrams.net" modified="2024-02-15T08:48:52.367Z" agent="Mozilla/5.0 (Windows NT 10.0; Win64; x64) AppleWebKit/537.36 (KHTML, like Gecko) Chrome/121.0.0.0 Safari/537.36" etag="YY0NSS0qFxNvJGLK95er" version="23.1.4" type="device">
  <diagram id="R2lEEEUBdFMjLlhIrx00" name="Page-1">
    <mxGraphModel dx="2298" dy="951" grid="1" gridSize="10" guides="1" tooltips="1" connect="1" arrows="1" fold="1" page="1" pageScale="1" pageWidth="850" pageHeight="1100" math="0" shadow="0" extFonts="Permanent Marker^https://fonts.googleapis.com/css?family=Permanent+Marker">
      <root>
        <mxCell id="0" />
        <mxCell id="1" parent="0" />
        <mxCell id="Rw4VGA-RrHj-sOF32omW-1" value="&lt;b&gt;student&lt;/b&gt;" style="whiteSpace=wrap;html=1;align=center;" vertex="1" parent="1">
          <mxGeometry x="140" y="390" width="100" height="40" as="geometry" />
        </mxCell>
        <mxCell id="Rw4VGA-RrHj-sOF32omW-5" value="&lt;b&gt;program&lt;/b&gt;" style="ellipse;whiteSpace=wrap;html=1;align=center;" vertex="1" parent="1">
          <mxGeometry x="90" y="310" width="100" height="40" as="geometry" />
        </mxCell>
        <mxCell id="Rw4VGA-RrHj-sOF32omW-6" value="&lt;b&gt;name&lt;/b&gt;" style="ellipse;whiteSpace=wrap;html=1;align=center;" vertex="1" parent="1">
          <mxGeometry x="80" y="480" width="100" height="40" as="geometry" />
        </mxCell>
        <mxCell id="Rw4VGA-RrHj-sOF32omW-7" value="&lt;b&gt;s_id&lt;/b&gt;" style="ellipse;whiteSpace=wrap;html=1;align=center;" vertex="1" parent="1">
          <mxGeometry y="390" width="100" height="40" as="geometry" />
        </mxCell>
        <mxCell id="Rw4VGA-RrHj-sOF32omW-8" value="&lt;b&gt;enrolls&lt;/b&gt;" style="shape=rhombus;perimeter=rhombusPerimeter;whiteSpace=wrap;html=1;align=center;" vertex="1" parent="1">
          <mxGeometry x="280" y="380" width="120" height="60" as="geometry" />
        </mxCell>
        <mxCell id="Rw4VGA-RrHj-sOF32omW-9" value="&lt;b&gt;grade&lt;/b&gt;" style="ellipse;whiteSpace=wrap;html=1;align=center;" vertex="1" parent="1">
          <mxGeometry x="290" y="290" width="100" height="40" as="geometry" />
        </mxCell>
        <mxCell id="Rw4VGA-RrHj-sOF32omW-10" value="" style="endArrow=none;html=1;rounded=0;fontSize=12;startSize=8;endSize=8;entryX=0;entryY=0.5;entryDx=0;entryDy=0;exitX=1;exitY=0.5;exitDx=0;exitDy=0;" edge="1" parent="1" source="Rw4VGA-RrHj-sOF32omW-7" target="Rw4VGA-RrHj-sOF32omW-1">
          <mxGeometry width="50" height="50" relative="1" as="geometry">
            <mxPoint x="80" y="480" as="sourcePoint" />
            <mxPoint x="130" y="430" as="targetPoint" />
          </mxGeometry>
        </mxCell>
        <mxCell id="Rw4VGA-RrHj-sOF32omW-11" value="" style="endArrow=none;html=1;rounded=0;fontSize=12;startSize=8;endSize=8;exitX=0.5;exitY=0;exitDx=0;exitDy=0;entryX=0.5;entryY=1;entryDx=0;entryDy=0;" edge="1" parent="1" source="Rw4VGA-RrHj-sOF32omW-1" target="Rw4VGA-RrHj-sOF32omW-5">
          <mxGeometry width="50" height="50" relative="1" as="geometry">
            <mxPoint x="170" y="380" as="sourcePoint" />
            <mxPoint x="220" y="330" as="targetPoint" />
          </mxGeometry>
        </mxCell>
        <mxCell id="Rw4VGA-RrHj-sOF32omW-12" value="" style="endArrow=none;html=1;rounded=0;fontSize=12;startSize=8;endSize=8;entryX=0.5;entryY=1;entryDx=0;entryDy=0;exitX=0.5;exitY=0;exitDx=0;exitDy=0;" edge="1" parent="1" source="Rw4VGA-RrHj-sOF32omW-6" target="Rw4VGA-RrHj-sOF32omW-1">
          <mxGeometry width="50" height="50" relative="1" as="geometry">
            <mxPoint x="145" y="490" as="sourcePoint" />
            <mxPoint x="195" y="440" as="targetPoint" />
          </mxGeometry>
        </mxCell>
        <mxCell id="Rw4VGA-RrHj-sOF32omW-13" value="" style="endArrow=none;html=1;rounded=0;fontSize=12;startSize=8;endSize=8;entryX=0.5;entryY=1;entryDx=0;entryDy=0;exitX=0.5;exitY=0;exitDx=0;exitDy=0;" edge="1" parent="1" source="Rw4VGA-RrHj-sOF32omW-8" target="Rw4VGA-RrHj-sOF32omW-9">
          <mxGeometry width="50" height="50" relative="1" as="geometry">
            <mxPoint x="300" y="440" as="sourcePoint" />
            <mxPoint x="350" y="390" as="targetPoint" />
          </mxGeometry>
        </mxCell>
        <mxCell id="Rw4VGA-RrHj-sOF32omW-14" value="" style="endArrow=none;html=1;rounded=0;fontSize=12;startSize=8;endSize=8;exitX=1;exitY=0.5;exitDx=0;exitDy=0;entryX=0;entryY=0.5;entryDx=0;entryDy=0;" edge="1" parent="1" source="Rw4VGA-RrHj-sOF32omW-1" target="Rw4VGA-RrHj-sOF32omW-8">
          <mxGeometry width="50" height="50" relative="1" as="geometry">
            <mxPoint x="240" y="440" as="sourcePoint" />
            <mxPoint x="290" y="390" as="targetPoint" />
          </mxGeometry>
        </mxCell>
        <mxCell id="Rw4VGA-RrHj-sOF32omW-15" value="&lt;b&gt;course_offerings&lt;/b&gt;" style="shape=ext;margin=3;double=1;whiteSpace=wrap;html=1;align=center;" vertex="1" parent="1">
          <mxGeometry x="465" y="390" width="110" height="40" as="geometry" />
        </mxCell>
        <mxCell id="Rw4VGA-RrHj-sOF32omW-16" value="&lt;b&gt;room&lt;/b&gt;" style="ellipse;whiteSpace=wrap;html=1;align=center;" vertex="1" parent="1">
          <mxGeometry x="550" y="330" width="100" height="40" as="geometry" />
        </mxCell>
        <mxCell id="Rw4VGA-RrHj-sOF32omW-17" value="&lt;b&gt;sec_no&lt;/b&gt;" style="ellipse;whiteSpace=wrap;html=1;align=center;" vertex="1" parent="1">
          <mxGeometry x="480" y="270" width="100" height="40" as="geometry" />
        </mxCell>
        <mxCell id="Rw4VGA-RrHj-sOF32omW-18" value="&lt;b&gt;time&lt;/b&gt;" style="ellipse;whiteSpace=wrap;html=1;align=center;" vertex="1" parent="1">
          <mxGeometry x="400" y="320" width="100" height="40" as="geometry" />
        </mxCell>
        <mxCell id="Rw4VGA-RrHj-sOF32omW-19" value="" style="endArrow=none;html=1;rounded=0;fontSize=12;startSize=8;endSize=8;entryX=0.213;entryY=0.913;entryDx=0;entryDy=0;entryPerimeter=0;exitX=0.75;exitY=0;exitDx=0;exitDy=0;" edge="1" parent="1" source="Rw4VGA-RrHj-sOF32omW-15" target="Rw4VGA-RrHj-sOF32omW-16">
          <mxGeometry width="50" height="50" relative="1" as="geometry">
            <mxPoint x="540" y="410" as="sourcePoint" />
            <mxPoint x="590" y="360" as="targetPoint" />
          </mxGeometry>
        </mxCell>
        <mxCell id="Rw4VGA-RrHj-sOF32omW-20" value="" style="endArrow=none;html=1;rounded=0;fontSize=12;startSize=8;endSize=8;entryX=0.5;entryY=1;entryDx=0;entryDy=0;exitX=0.5;exitY=0;exitDx=0;exitDy=0;" edge="1" parent="1" source="Rw4VGA-RrHj-sOF32omW-15" target="Rw4VGA-RrHj-sOF32omW-17">
          <mxGeometry width="50" height="50" relative="1" as="geometry">
            <mxPoint x="490" y="400" as="sourcePoint" />
            <mxPoint x="540" y="350" as="targetPoint" />
          </mxGeometry>
        </mxCell>
        <mxCell id="Rw4VGA-RrHj-sOF32omW-21" value="" style="endArrow=none;html=1;rounded=0;fontSize=12;startSize=8;endSize=8;entryX=0.5;entryY=1;entryDx=0;entryDy=0;exitX=0.25;exitY=0;exitDx=0;exitDy=0;" edge="1" parent="1" source="Rw4VGA-RrHj-sOF32omW-15" target="Rw4VGA-RrHj-sOF32omW-18">
          <mxGeometry width="50" height="50" relative="1" as="geometry">
            <mxPoint x="480" y="380" as="sourcePoint" />
            <mxPoint x="530" y="330" as="targetPoint" />
          </mxGeometry>
        </mxCell>
        <mxCell id="Rw4VGA-RrHj-sOF32omW-22" value="&lt;b&gt;semester&lt;/b&gt;" style="ellipse;whiteSpace=wrap;html=1;align=center;" vertex="1" parent="1">
          <mxGeometry x="575" y="470" width="100" height="40" as="geometry" />
        </mxCell>
        <mxCell id="Rw4VGA-RrHj-sOF32omW-23" value="&lt;b&gt;year&lt;/b&gt;" style="ellipse;whiteSpace=wrap;html=1;align=center;" vertex="1" parent="1">
          <mxGeometry x="365" y="480" width="100" height="40" as="geometry" />
        </mxCell>
        <mxCell id="Rw4VGA-RrHj-sOF32omW-24" value="&lt;b&gt;teaches&lt;/b&gt;" style="shape=rhombus;perimeter=rhombusPerimeter;whiteSpace=wrap;html=1;align=center;" vertex="1" parent="1">
          <mxGeometry x="630" y="380" width="120" height="60" as="geometry" />
        </mxCell>
        <mxCell id="Rw4VGA-RrHj-sOF32omW-25" value="" style="endArrow=none;html=1;rounded=0;fontSize=12;startSize=8;endSize=8;entryX=0.75;entryY=1;entryDx=0;entryDy=0;exitX=0.5;exitY=0;exitDx=0;exitDy=0;" edge="1" parent="1" source="Rw4VGA-RrHj-sOF32omW-22" target="Rw4VGA-RrHj-sOF32omW-15">
          <mxGeometry width="50" height="50" relative="1" as="geometry">
            <mxPoint x="540" y="520" as="sourcePoint" />
            <mxPoint x="590" y="470" as="targetPoint" />
          </mxGeometry>
        </mxCell>
        <mxCell id="Rw4VGA-RrHj-sOF32omW-26" value="" style="endArrow=none;html=1;rounded=0;fontSize=12;startSize=8;endSize=8;entryX=0.25;entryY=1;entryDx=0;entryDy=0;exitX=0.5;exitY=0;exitDx=0;exitDy=0;" edge="1" parent="1" source="Rw4VGA-RrHj-sOF32omW-23" target="Rw4VGA-RrHj-sOF32omW-15">
          <mxGeometry width="50" height="50" relative="1" as="geometry">
            <mxPoint x="470" y="505" as="sourcePoint" />
            <mxPoint x="520" y="455" as="targetPoint" />
          </mxGeometry>
        </mxCell>
        <mxCell id="Rw4VGA-RrHj-sOF32omW-27" value="" style="endArrow=none;html=1;rounded=0;fontSize=12;startSize=8;endSize=8;exitX=1;exitY=0.5;exitDx=0;exitDy=0;entryX=0;entryY=0.5;entryDx=0;entryDy=0;" edge="1" parent="1" source="Rw4VGA-RrHj-sOF32omW-15" target="Rw4VGA-RrHj-sOF32omW-24">
          <mxGeometry width="50" height="50" relative="1" as="geometry">
            <mxPoint x="580" y="450" as="sourcePoint" />
            <mxPoint x="630" y="400" as="targetPoint" />
          </mxGeometry>
        </mxCell>
        <mxCell id="Rw4VGA-RrHj-sOF32omW-28" value="" style="endArrow=none;html=1;rounded=0;fontSize=12;startSize=8;endSize=8;exitX=1;exitY=0.5;exitDx=0;exitDy=0;entryX=0;entryY=0.5;entryDx=0;entryDy=0;" edge="1" parent="1" source="Rw4VGA-RrHj-sOF32omW-8" target="Rw4VGA-RrHj-sOF32omW-15">
          <mxGeometry width="50" height="50" relative="1" as="geometry">
            <mxPoint x="410" y="520" as="sourcePoint" />
            <mxPoint x="460" y="470" as="targetPoint" />
          </mxGeometry>
        </mxCell>
        <mxCell id="Rw4VGA-RrHj-sOF32omW-30" value="&lt;b&gt;is&lt;/b&gt; &lt;b&gt;offered&lt;/b&gt;" style="shape=rhombus;perimeter=rhombusPerimeter;whiteSpace=wrap;html=1;align=center;" vertex="1" parent="1">
          <mxGeometry x="460" y="560" width="120" height="60" as="geometry" />
        </mxCell>
        <mxCell id="Rw4VGA-RrHj-sOF32omW-35" value="&lt;b&gt;Entity&lt;/b&gt;" style="whiteSpace=wrap;html=1;align=center;" vertex="1" parent="1">
          <mxGeometry x="470" y="700" width="100" height="40" as="geometry" />
        </mxCell>
        <mxCell id="Rw4VGA-RrHj-sOF32omW-36" value="&lt;b&gt;requires&lt;/b&gt;" style="shape=rhombus;perimeter=rhombusPerimeter;whiteSpace=wrap;html=1;align=center;" vertex="1" parent="1">
          <mxGeometry x="230" y="690" width="120" height="60" as="geometry" />
        </mxCell>
        <mxCell id="Rw4VGA-RrHj-sOF32omW-37" value="&lt;b&gt;course_no&lt;/b&gt;" style="ellipse;whiteSpace=wrap;html=1;align=center;" vertex="1" parent="1">
          <mxGeometry x="550" y="780" width="100" height="40" as="geometry" />
        </mxCell>
        <mxCell id="Rw4VGA-RrHj-sOF32omW-38" value="&lt;b&gt;title&lt;/b&gt;" style="ellipse;whiteSpace=wrap;html=1;align=center;" vertex="1" parent="1">
          <mxGeometry x="570" y="620" width="100" height="40" as="geometry" />
        </mxCell>
        <mxCell id="Rw4VGA-RrHj-sOF32omW-39" value="&lt;b&gt;syllabus&lt;/b&gt;" style="ellipse;whiteSpace=wrap;html=1;align=center;" vertex="1" parent="1">
          <mxGeometry x="410" y="820" width="100" height="40" as="geometry" />
        </mxCell>
        <mxCell id="Rw4VGA-RrHj-sOF32omW-40" value="" style="endArrow=classic;html=1;rounded=0;fontSize=12;startSize=8;endSize=8;exitX=0.5;exitY=1;exitDx=0;exitDy=0;entryX=0.5;entryY=0;entryDx=0;entryDy=0;" edge="1" parent="1" source="Rw4VGA-RrHj-sOF32omW-30" target="Rw4VGA-RrHj-sOF32omW-35">
          <mxGeometry width="50" height="50" relative="1" as="geometry">
            <mxPoint x="530" y="750" as="sourcePoint" />
            <mxPoint x="580" y="700" as="targetPoint" />
          </mxGeometry>
        </mxCell>
        <mxCell id="Rw4VGA-RrHj-sOF32omW-41" value="&lt;b&gt;credits&lt;/b&gt;" style="ellipse;whiteSpace=wrap;html=1;align=center;" vertex="1" parent="1">
          <mxGeometry x="325" y="610" width="100" height="40" as="geometry" />
        </mxCell>
        <mxCell id="Rw4VGA-RrHj-sOF32omW-42" value="" style="shape=link;html=1;rounded=0;fontSize=12;startSize=8;endSize=8;exitX=0.967;exitY=0.499;exitDx=0;exitDy=0;entryX=0;entryY=0.5;entryDx=0;entryDy=0;exitPerimeter=0;" edge="1" parent="1" source="Rw4VGA-RrHj-sOF32omW-36" target="Rw4VGA-RrHj-sOF32omW-35">
          <mxGeometry width="100" relative="1" as="geometry">
            <mxPoint x="430" y="720" as="sourcePoint" />
            <mxPoint x="460" y="720" as="targetPoint" />
          </mxGeometry>
        </mxCell>
        <mxCell id="Rw4VGA-RrHj-sOF32omW-43" value="" style="shape=link;html=1;rounded=0;fontSize=12;startSize=8;endSize=8;entryX=0.5;entryY=0;entryDx=0;entryDy=0;" edge="1" parent="1" target="Rw4VGA-RrHj-sOF32omW-30">
          <mxGeometry width="100" relative="1" as="geometry">
            <mxPoint x="520" y="430" as="sourcePoint" />
            <mxPoint x="520" y="630" as="targetPoint" />
          </mxGeometry>
        </mxCell>
        <mxCell id="Rw4VGA-RrHj-sOF32omW-44" value="" style="endArrow=none;html=1;rounded=0;fontSize=12;startSize=8;endSize=8;entryX=0.5;entryY=0;entryDx=0;entryDy=0;exitX=0.25;exitY=1;exitDx=0;exitDy=0;" edge="1" parent="1" source="Rw4VGA-RrHj-sOF32omW-35" target="Rw4VGA-RrHj-sOF32omW-39">
          <mxGeometry width="50" height="50" relative="1" as="geometry">
            <mxPoint x="390" y="960" as="sourcePoint" />
            <mxPoint x="440" y="910" as="targetPoint" />
          </mxGeometry>
        </mxCell>
        <mxCell id="Rw4VGA-RrHj-sOF32omW-45" value="" style="endArrow=none;html=1;rounded=0;fontSize=12;startSize=8;endSize=8;entryX=0;entryY=1;entryDx=0;entryDy=0;exitX=0.75;exitY=0;exitDx=0;exitDy=0;" edge="1" parent="1" source="Rw4VGA-RrHj-sOF32omW-35" target="Rw4VGA-RrHj-sOF32omW-38">
          <mxGeometry width="50" height="50" relative="1" as="geometry">
            <mxPoint x="550" y="670" as="sourcePoint" />
            <mxPoint x="600" y="620" as="targetPoint" />
          </mxGeometry>
        </mxCell>
        <mxCell id="Rw4VGA-RrHj-sOF32omW-46" value="" style="endArrow=none;html=1;rounded=0;fontSize=12;startSize=8;endSize=8;entryX=0.25;entryY=0;entryDx=0;entryDy=0;exitX=1;exitY=1;exitDx=0;exitDy=0;" edge="1" parent="1" source="Rw4VGA-RrHj-sOF32omW-41" target="Rw4VGA-RrHj-sOF32omW-35">
          <mxGeometry width="50" height="50" relative="1" as="geometry">
            <mxPoint x="440" y="670" as="sourcePoint" />
            <mxPoint x="490" y="620" as="targetPoint" />
          </mxGeometry>
        </mxCell>
        <mxCell id="Rw4VGA-RrHj-sOF32omW-47" value="" style="endArrow=none;html=1;rounded=0;fontSize=12;startSize=8;endSize=8;exitX=0.75;exitY=1;exitDx=0;exitDy=0;" edge="1" parent="1" source="Rw4VGA-RrHj-sOF32omW-35" target="Rw4VGA-RrHj-sOF32omW-37">
          <mxGeometry width="50" height="50" relative="1" as="geometry">
            <mxPoint x="560" y="785" as="sourcePoint" />
            <mxPoint x="610" y="735" as="targetPoint" />
          </mxGeometry>
        </mxCell>
        <mxCell id="Rw4VGA-RrHj-sOF32omW-48" value="&lt;b&gt;prerequisite&lt;/b&gt;" style="text;strokeColor=none;fillColor=none;align=left;verticalAlign=middle;spacingLeft=4;spacingRight=4;overflow=hidden;points=[[0,0.5],[1,0.5]];portConstraint=eastwest;rotatable=0;whiteSpace=wrap;html=1;" vertex="1" parent="1">
          <mxGeometry x="360" y="680" width="80" height="30" as="geometry" />
        </mxCell>
        <mxCell id="Rw4VGA-RrHj-sOF32omW-49" value="&lt;b&gt;maincourse&lt;/b&gt;" style="text;strokeColor=none;fillColor=none;align=left;verticalAlign=middle;spacingLeft=4;spacingRight=4;overflow=hidden;points=[[0,0.5],[1,0.5]];portConstraint=eastwest;rotatable=0;whiteSpace=wrap;html=1;" vertex="1" parent="1">
          <mxGeometry x="360" y="730" width="80" height="30" as="geometry" />
        </mxCell>
        <mxCell id="Rw4VGA-RrHj-sOF32omW-50" value="&lt;b&gt;instructor&lt;/b&gt;" style="whiteSpace=wrap;html=1;align=center;" vertex="1" parent="1">
          <mxGeometry x="800" y="390" width="100" height="40" as="geometry" />
        </mxCell>
        <mxCell id="Rw4VGA-RrHj-sOF32omW-51" value="&lt;b&gt;i_id&lt;/b&gt;" style="ellipse;whiteSpace=wrap;html=1;align=center;" vertex="1" parent="1">
          <mxGeometry x="770" y="310" width="100" height="40" as="geometry" />
        </mxCell>
        <mxCell id="Rw4VGA-RrHj-sOF32omW-52" value="&lt;b&gt;name&lt;/b&gt;" style="ellipse;whiteSpace=wrap;html=1;align=center;" vertex="1" parent="1">
          <mxGeometry x="920" y="340" width="100" height="40" as="geometry" />
        </mxCell>
        <mxCell id="Rw4VGA-RrHj-sOF32omW-53" value="&lt;b&gt;title&lt;/b&gt;" style="ellipse;whiteSpace=wrap;html=1;align=center;" vertex="1" parent="1">
          <mxGeometry x="930" y="440" width="100" height="40" as="geometry" />
        </mxCell>
        <mxCell id="Rw4VGA-RrHj-sOF32omW-54" value="&lt;b&gt;dept&lt;/b&gt;" style="ellipse;whiteSpace=wrap;html=1;align=center;" vertex="1" parent="1">
          <mxGeometry x="770" y="480" width="100" height="40" as="geometry" />
        </mxCell>
        <mxCell id="Rw4VGA-RrHj-sOF32omW-55" value="" style="endArrow=none;html=1;rounded=0;fontSize=12;startSize=8;endSize=8;entryX=0.5;entryY=1;entryDx=0;entryDy=0;exitX=0.5;exitY=0;exitDx=0;exitDy=0;" edge="1" parent="1" source="Rw4VGA-RrHj-sOF32omW-50" target="Rw4VGA-RrHj-sOF32omW-51">
          <mxGeometry width="50" height="50" relative="1" as="geometry">
            <mxPoint x="740" y="550" as="sourcePoint" />
            <mxPoint x="790" y="500" as="targetPoint" />
          </mxGeometry>
        </mxCell>
        <mxCell id="Rw4VGA-RrHj-sOF32omW-56" value="" style="endArrow=none;html=1;rounded=0;fontSize=12;startSize=8;endSize=8;entryX=0.5;entryY=1;entryDx=0;entryDy=0;exitX=0.5;exitY=0;exitDx=0;exitDy=0;" edge="1" parent="1" source="Rw4VGA-RrHj-sOF32omW-54" target="Rw4VGA-RrHj-sOF32omW-50">
          <mxGeometry width="50" height="50" relative="1" as="geometry">
            <mxPoint x="740" y="550" as="sourcePoint" />
            <mxPoint x="790" y="500" as="targetPoint" />
          </mxGeometry>
        </mxCell>
        <mxCell id="Rw4VGA-RrHj-sOF32omW-57" value="" style="endArrow=none;html=1;rounded=0;fontSize=12;startSize=8;endSize=8;entryX=0;entryY=0.5;entryDx=0;entryDy=0;exitX=1;exitY=0.5;exitDx=0;exitDy=0;" edge="1" parent="1" source="Rw4VGA-RrHj-sOF32omW-24" target="Rw4VGA-RrHj-sOF32omW-50">
          <mxGeometry width="50" height="50" relative="1" as="geometry">
            <mxPoint x="740" y="550" as="sourcePoint" />
            <mxPoint x="790" y="500" as="targetPoint" />
          </mxGeometry>
        </mxCell>
        <mxCell id="Rw4VGA-RrHj-sOF32omW-58" value="" style="endArrow=none;html=1;rounded=0;fontSize=12;startSize=8;endSize=8;exitX=0;exitY=1;exitDx=0;exitDy=0;entryX=1;entryY=0;entryDx=0;entryDy=0;" edge="1" parent="1" source="Rw4VGA-RrHj-sOF32omW-52" target="Rw4VGA-RrHj-sOF32omW-50">
          <mxGeometry width="50" height="50" relative="1" as="geometry">
            <mxPoint x="740" y="550" as="sourcePoint" />
            <mxPoint x="790" y="500" as="targetPoint" />
          </mxGeometry>
        </mxCell>
        <mxCell id="Rw4VGA-RrHj-sOF32omW-59" value="" style="endArrow=none;html=1;rounded=0;fontSize=12;startSize=8;endSize=8;entryX=0;entryY=0.5;entryDx=0;entryDy=0;exitX=1;exitY=1;exitDx=0;exitDy=0;" edge="1" parent="1" source="Rw4VGA-RrHj-sOF32omW-50" target="Rw4VGA-RrHj-sOF32omW-53">
          <mxGeometry width="50" height="50" relative="1" as="geometry">
            <mxPoint x="740" y="550" as="sourcePoint" />
            <mxPoint x="790" y="500" as="targetPoint" />
          </mxGeometry>
        </mxCell>
      </root>
    </mxGraphModel>
  </diagram>
</mxfile>
